<mxfile host="app.diagrams.net" modified="2024-05-11T00:54:09.915Z" agent="Mozilla/5.0 (Macintosh; Intel Mac OS X 10_15_7) AppleWebKit/537.36 (KHTML, like Gecko) Chrome/121.0.0.0 Safari/537.36 OPR/107.0.0.0 (Edition std-1)" version="24.4.0" etag="yOTGliuk_-kiVrmeTezT" type="github">
  <diagram name="Page-1" id="zSvLlB_tGy_QWsFv92lQ">
    <mxGraphModel>
      <root>
        <mxCell id="0" />
        <mxCell id="1" parent="0" />
      </root>
    </mxGraphModel>
  </diagram>
</mxfile>
